name D:\school\WTK\thesis\model\3dpredictsim\Results\test_pp\Fal_s1_bCst_PF_Gefen2001_ls135_k_nonl90_kmtp_ig24x3_v5.mot
datacolumns 128
datarows 4
range 0.00000000 0.03416661
endheader
time	pelvis_tilt	pelvis_list	pelvis_rotation	pelvis_tx	pelvis_ty	pelvis_tz	hip_flexion_l	hip_adduction_l	hip_rotation_l	hip_flexion_r	hip_adduction_r	hip_rotation_r	knee_angle_l	knee_angle_r	ankle_angle_l	ankle_angle_r	subtalar_angle_l	subtalar_angle_r	tmt_angle_l	tmt_angle_r	mtp_angle_l	mtp_angle_r	lumbar_extension	lumbar_bending	lumbar_rotation	arm_flex_l	arm_add_l	arm_rot_l	arm_flex_r	arm_add_r	arm_rot_r	elbow_flex_l	elbow_flex_r	pro_sup_l	pro_sup_r	glut_med1_l/activation	glut_med2_l/activation	glut_med3_l/activation	glut_min1_l/activation	glut_min2_l/activation	glut_min3_l/activation	semimem_l/activation	semiten_l/activation	bifemlh_l/activation	bifemsh_l/activation	sar_l/activation	add_long_l/activation	add_brev_l/activation	add_mag1_l/activation	add_mag2_l/activation	add_mag3_l/activation	tfl_l/activation	pect_l/activation	grac_l/activation	glut_max1_l/activation	glut_max2_l/activation	glut_max3_l/activation	iliacus_l/activation	psoas_l/activation	quad_fem_l/activation	gem_l/activation	peri_l/activation	rect_fem_l/activation	vas_med_l/activation	vas_int_l/activation	vas_lat_l/activation	med_gas_l/activation	lat_gas_l/activation	soleus_l/activation	tib_post_l/activation	flex_dig_l/activation	flex_hal_l/activation	tib_ant_l/activation	per_brev_l/activation	per_long_l/activation	per_tert_l/activation	ext_dig_l/activation	ext_hal_l/activation	ercspn_l/activation	intobl_l/activation	extobl_l/activation	glut_med1_r/activation	glut_med2_r/activation	glut_med3_r/activation	glut_min1_r/activation	glut_min2_r/activation	glut_min3_r/activation	semimem_r/activation	semiten_r/activation	bifemlh_r/activation	bifemsh_r/activation	sar_r/activation	add_long_r/activation	add_brev_r/activation	add_mag1_r/activation	add_mag2_r/activation	add_mag3_r/activation	tfl_r/activation	pect_r/activation	grac_r/activation	glut_max1_r/activation	glut_max2_r/activation	glut_max3_r/activation	iliacus_r/activation	psoas_r/activation	quad_fem_r/activation	gem_r/activation	peri_r/activation	rect_fem_r/activation	vas_med_r/activation	vas_int_r/activation	vas_lat_r/activation	med_gas_r/activation	lat_gas_r/activation	soleus_r/activation	tib_post_r/activation	flex_dig_r/activation	flex_hal_r/activation	tib_ant_r/activation	per_brev_r/activation	per_long_r/activation	per_tert_r/activation	ext_dig_r/activation	ext_hal_r/activation	ercspn_r/activation	intobl_r/activation	extobl_r/activation	
          0.00000000	         -2.93017293	         -2.22101494	          5.57120590	          0.00000000	          0.91798055	         -0.00300495	        -17.15083366	         -1.05537951	          6.49481073	         29.20013626	          3.18889912	         -2.45416176	         -6.17041208	         -9.18937469	         -1.23812349	          6.79736502	          4.82341767	         -7.65926035	          3.78429015	         -0.40617061	         20.74459881	         -0.08195357	         -1.67306311	          0.13565209	         -2.39483250	          6.69686328	        -13.44970715	         16.03384944	         -7.87770080	        -13.55962628	          5.56511025	         34.83260795	         16.87079608	         86.51662706	         86.51662706	          0.25659620	          0.10020715	          0.07605177	          0.26495286	          0.19048261	          0.11922333	          0.05000063	          0.05000017	          0.05000013	          0.05001182	          0.10606990	          0.08317575	          0.06569374	          0.05000321	          0.05000298	          0.05000067	          0.31730033	          0.07610458	          0.05001735	          0.05000303	          0.05000179	          0.05000195	          0.46038519	          0.70041262	          0.05083687	          0.05000801	          0.06456647	          0.30572460	          0.05001158	          0.06417718	          0.05011006	          0.28303858	          0.38381156	          0.31759650	          0.30151200	          0.28891487	          0.37354275	          0.05000003	          0.05000104	          0.09331911	          0.05000018	          0.05000004	          0.05000018	          0.05000001	          0.05000030	          0.05000002	          0.05000044	          0.05016330	          0.05000026	          0.05949078	          0.05949062	          0.05000079	          0.24689683	          0.09166081	          0.15380507	          0.09904289	          0.05000103	          0.10747102	          0.18752252	          0.24570343	          0.17863224	          0.11055459	          0.05000017	          0.05002971	          0.12665957	          0.05000173	          0.10345281	          0.16967978	          0.05000523	          0.05000066	          0.11037005	          0.23118817	          0.12144292	          0.07078308	          0.10849148	          0.10733463	          0.07085338	          0.06518632	          0.06523548	          0.05000038	          0.05000002	          0.05000016	          0.05000017	          0.47911053	          0.29102042	          0.19188583	          0.09036297	          0.46277832	          0.10463316	          0.06365934	          0.12361879	          0.11996633	
          0.01138887	         -2.92834720	         -2.31571495	          5.93435058	          0.01708763	          0.91699637	         -0.00283830	        -17.14499224	         -1.37147940	          6.23178905	         28.69184942	          3.45515922	         -2.13127154	         -7.89830757	         -9.92773359	         -1.76845910	          6.13131003	          5.65374887	         -7.92796111	          3.30553595	         -0.52309157	         21.98465481	         -0.09942497	         -1.46025767	          0.32468218	         -2.45460376	          6.50832359	        -13.45052598	         16.39036297	         -8.85159082	        -13.54782571	          5.61315430	         36.07326750	         16.50289462	         86.51662706	         86.51662706	          0.23144278	          0.08422084	          0.06391904	          0.22268440	          0.16009443	          0.10020333	          0.05000266	          0.05000122	          0.05000110	          0.05000017	          0.08914844	          0.11131278	          0.05949133	          0.05949098	          0.05948790	          0.05949177	          0.26668063	          0.06396864	          0.05000204	          0.05000355	          0.05000275	          0.05000581	          0.38693871	          0.65666521	          0.05000027	          0.05000067	          0.05426604	          0.25695151	          0.15520626	          0.09194259	          0.12798482	          0.23788464	          0.32258105	          0.27917202	          0.27399158	          0.24282404	          0.31395192	          0.05000002	          0.05000027	          0.11815203	          0.05000012	          0.05000003	          0.05000015	          0.05000004	          0.05949073	          0.05949078	          0.05000005	          0.05000006	          0.06712808	          0.05000010	          0.05000009	          0.05000022	          0.21374924	          0.07703806	          0.13022432	          0.08324234	          0.05000122	          0.09032613	          0.19180166	          0.20650612	          0.15026269	          0.13224421	          0.05000070	          0.06533532	          0.10645364	          0.05000300	          0.11258337	          0.14261050	          0.05000019	          0.05000055	          0.26259751	          0.19430610	          0.10206884	          0.05949087	          0.09118359	          0.09021130	          0.05955000	          0.06836887	          0.07078289	          0.05889791	          0.05949090	          0.05352811	          0.05798406	          0.40267672	          0.24459333	          0.18498266	          0.07594713	          0.46429354	          0.08794077	          0.05350359	          0.11070092	          0.10082777	
          0.02277774	         -2.92296553	         -2.40239727	          6.26326449	          0.03447269	          0.91605828	         -0.00266070	        -17.09195691	         -1.68095881	          5.96188568	         28.07505379	          3.67476595	         -1.81870046	         -9.70396857	        -10.70781102	         -2.38717937	          5.43599872	          6.44132843	         -8.21189274	          2.67307415	         -0.56881770	         23.15725636	         -0.15293777	         -1.22853795	          0.51419780	         -2.50354831	          6.24783080	        -13.45369066	         16.69860526	         -9.84988822	        -13.53561982	          5.68043750	         37.25224008	         16.20760782	         86.51662706	         86.51662706	          0.24308410	          0.07078487	          0.05372188	          0.31385433	          0.13455419	          0.08421766	          0.05000091	          0.05000013	          0.05000011	          0.05000025	          0.07492695	          0.10252980	          0.05000071	          0.05000056	          0.05000075	          0.05000117	          0.22413763	          0.05376618	          0.05000052	          0.05000166	          0.05000087	          0.05000050	          0.34319414	          0.63521954	          0.05000012	          0.05000074	          0.05000036	          0.21595936	          0.13044854	          0.19846227	          0.10756933	          0.19993423	          0.27111880	          0.23463492	          0.23805548	          0.20408582	          0.26386647	          0.05000002	          0.08285216	          0.12601894	          0.05000013	          0.05000003	          0.05000012	          0.05000023	          0.05000002	          0.05000007	          0.18573910	          0.19362599	          0.23095574	          0.21821699	          0.15677688	          0.10546615	          0.17964923	          0.06474817	          0.10944929	          0.08603694	          0.05000741	          0.07591623	          0.16120310	          0.17356178	          0.12629136	          0.13915860	          0.05000053	          0.05491675	          0.10526188	          0.13510888	          0.14745121	          0.14280317	          0.05000204	          0.05000053	          0.22070472	          0.16330800	          0.16914515	          0.05000019	          0.07663686	          0.07581968	          0.05004985	          0.05746192	          0.05949077	          0.05000003	          0.05000019	          0.05000057	          0.05000077	          0.51147036	          0.33119117	          0.20491559	          0.33944490	          0.50350378	          0.19741477	          0.06221465	          0.12467756	          0.08474243	
          0.03416661	         -2.91551760	         -2.47751661	          6.55239665	          0.05195877	          0.91521204	         -0.00245341	        -16.97242293	         -1.97861337	          5.69980317	         27.43712937	          3.88659723	         -1.51143196	        -11.59294812	        -11.46422128	         -3.09162571	          4.83235552	          7.18585219	         -8.48691164	          1.88869536	         -0.56306143	         24.19898771	         -0.18206902	         -0.99856465	          0.70287552	         -2.54381347	          5.94733513	        -13.46155911	         16.97478726	        -10.82506614	        -13.52209894	          5.77573526	         38.34664498	         15.95626891	         86.51662706	         86.51662706	          0.28838296	          0.05949239	          0.05000013	          0.26378496	          0.11308844	          0.07078223	          0.05000189	          0.05000023	          0.05000018	          0.05000018	          0.06297390	          0.13447007	          0.06864185	          0.05000421	          0.05000533	          0.05000151	          0.18838107	          0.06464173	          0.05000146	          0.05000357	          0.05000224	          0.05000183	          0.28844350	          0.59881433	          0.05000035	          0.05000089	          0.05000018	          0.18150676	          0.16871383	          0.16680257	          0.16502076	          0.16803816	          0.22786646	          0.19720295	          0.20007798	          0.17152753	          0.22177119	          0.05000010	          0.07042334	          0.13133442	          0.05000042	          0.08253599	          0.05000058	          0.05884062	          0.05000001	          0.05000003	          0.27164253	          0.28818084	          0.32445908	          0.18340460	          0.13808528	          0.17114122	          0.15098930	          0.06061778	          0.09198873	          0.07231127	          0.05000053	          0.06380516	          0.13548600	          0.14587328	          0.10616628	          0.16536533	          0.05000037	          0.05000127	          0.08846947	          0.21403735	          0.19260367	          0.17209487	          0.05000009	          0.05000010	          0.18549528	          0.13725510	          0.14216141	          0.05000008	          0.09641561	          0.10016542	          0.09969470	          0.05000002	          0.05000011	          0.05000001	          0.05000022	          0.05000027	          0.05000028	          0.59025209	          0.34800226	          0.20295909	          0.37602601	          0.56122771	          0.27171058	          0.07788320	          0.10766096	          0.07122324	
